<svg width="421" height="55" viewBox="0 0 421 55" fill="none" xmlns="http://www.w3.org/2000/svg">
<path fill-rule="evenodd" clip-rule="evenodd" d="M99.3009 0.928825C103.266 0.928825 106.189 2.10566 108.072 4.4596C109.955 6.81341 110.897 9.97256 110.897 13.9368V15.3491H105.396V13.6394C105.396 11.2607 104.926 9.42713 103.984 8.13899C103.042 6.85042 101.531 6.20635 99.4495 6.20635C97.3683 6.20635 95.857 6.85042 94.9154 8.13899C93.9736 9.42713 93.5032 11.2359 93.5032 13.5652C93.5032 15.4979 93.9366 17.1827 94.8038 18.6196C95.6712 20.0569 96.7487 21.3825 98.0373 22.5965C99.3257 23.8109 100.726 24.9999 102.237 26.1647C103.749 27.329 105.148 28.6053 106.437 29.9928C107.725 31.3803 108.803 32.9537 109.67 34.7127C110.538 36.4722 110.971 38.5657 110.971 40.9941C110.971 44.9583 110.017 48.1174 108.109 50.4712C106.201 52.8252 103.241 54.002 99.2268 54.002C95.2129 54.002 92.2643 52.8252 90.3809 50.4712C88.4981 48.1174 87.5566 44.9583 87.5566 40.9941V38.0205H92.9829V41.2914C92.9829 43.6697 93.4782 45.5033 94.4693 46.7918C95.4605 48.0804 96.9968 48.7245 99.078 48.7245C101.159 48.7245 102.696 48.0804 103.687 46.7918C104.678 45.5033 105.173 43.6697 105.173 41.2914C105.173 39.3583 104.74 37.6862 103.872 36.2738C103.005 34.8614 101.927 33.5483 100.639 32.3339C99.3506 31.12 97.9631 29.9309 96.4761 28.7661C94.9896 27.6014 93.6021 26.3255 92.3135 24.938C91.0254 23.5505 89.9475 21.9772 89.0802 20.2177C88.2128 18.4588 87.7794 16.3651 87.7794 13.9368C87.7794 9.92288 88.7208 6.75149 90.6042 4.42204C92.487 2.09313 95.386 0.928825 99.3009 0.928825ZM127.774 43.0007L125.767 53.4818H120.415L130.376 1.44906H138.775L148.736 53.4818H142.938L140.931 43.0007H127.774ZM128.517 38.0205H140.113L134.241 7.99024L128.517 38.0205ZM164.944 1.44906V53.4818H159.146V1.44906H164.944ZM176.767 53.4818V1.44906H182.564V48.2042H197.431V53.4818H176.767ZM243.237 23.5631V28.7666H230.526V47.2754H246.136V52.5529H224.728V0.520241H246.136V5.79777H230.526V23.5631H243.237ZM262.493 52.5529H257.289V0.520241H264.648L276.69 38.1326V0.520241H281.819V52.5529H275.798L262.493 10.4806V52.5529ZM312.151 23.5631V28.7666H299.44V47.2754H315.05V52.5529H293.642V0.520241H315.05V5.79777H299.44V23.5631H312.151ZM337.874 0.520241C341.987 0.520241 344.948 1.53624 346.756 3.56781C348.565 5.59937 349.47 8.54799 349.47 12.4133V16.6503C349.47 19.5244 348.949 21.8538 347.908 23.6377C346.868 25.4216 345.232 26.6605 343.002 27.3542C345.381 28.048 347.066 29.3239 348.057 31.1824C349.048 33.0408 349.544 35.382 349.544 38.2068V46.3091C349.544 47.4489 349.593 48.5513 349.692 49.617C349.792 50.6822 350.089 51.6608 350.584 52.5529H344.712C344.365 51.8095 344.117 51.0045 343.969 50.1372C343.82 49.27 343.746 47.9692 343.746 46.2345V38.058C343.746 35.1343 343.089 33.1149 341.776 32C340.463 30.8849 338.592 30.3276 336.164 30.3276H332.076V52.5529H326.278V0.520241H337.874ZM336.387 25.0501C338.716 25.0501 340.525 24.5669 341.813 23.6003C343.102 22.634 343.746 20.7388 343.746 17.914V12.9338C343.746 10.5552 343.288 8.77117 342.371 7.58167C341.454 6.39259 339.906 5.79777 337.725 5.79777H332.076V25.0501H336.387ZM372.665 0C376.679 0 379.64 1.18909 381.548 3.56781C383.456 5.94652 384.41 9.11791 384.41 13.0825V17.5425H378.909V12.7852C378.909 10.4065 378.426 8.56065 377.459 7.24718C376.493 5.93385 374.945 5.27753 372.814 5.27753C370.733 5.27753 369.196 5.93385 368.205 7.24718C367.214 8.56065 366.719 10.4065 366.719 12.7852V40.288C366.719 42.6667 367.214 44.5126 368.205 45.8259C369.196 47.1389 370.733 47.7957 372.814 47.7957C374.945 47.7957 376.493 47.1389 377.459 45.8259C378.426 44.5126 378.909 42.6667 378.909 40.288V29.8816H373.557V24.6782H384.41V39.9907C384.41 43.9553 383.456 47.1267 381.548 49.5054C379.64 51.8841 376.679 53.0732 372.665 53.0732C368.7 53.0732 365.764 51.8841 363.857 49.5054C361.949 47.1267 360.995 43.9553 360.995 39.9907V13.0825C360.995 11.1002 361.23 9.30365 361.701 7.69326C362.172 6.08259 362.89 4.70763 363.857 3.56781C364.823 2.42798 366.037 1.54849 367.499 0.92877C368.961 0.309603 370.683 0 372.665 0ZM403.888 33.8954L392.887 0.520241H398.908L407.01 26.0904L415.187 0.520241H420.687L409.612 33.8954V52.5529H403.888V33.8954Z" fill="white"/>
<path d="M64.832 20.7358C63.9219 24.9604 62.5551 29.3334 60.7143 33.7442H1.40965C2.32659 29.5463 3.68392 25.1761 5.4612 20.7358H64.832Z" fill="#56E7D0"/>
<path d="M66.1538 10.8305C66.1203 11.5487 66.0718 12.2749 66.0084 13.0084H8.99407C11.4842 8.22892 14.3704 3.85491 17.5056 0H65.1432C65.5454 3.64405 65.8821 7.25498 66.1538 10.8305Z" fill="#56E7D0"/>
<path d="M48.0462 54.4796C51.326 50.6644 54.3637 46.2873 57.0005 41.4712H0.203975C-0.219597 46.2097 0.0127203 50.6051 0.936483 54.4796H48.0462Z" fill="#56E7D0"/>
</svg>
