<svg width="44" height="44" viewBox="0 0 44 44" fill="none" xmlns="http://www.w3.org/2000/svg">
<path d="M22.0013 36.667C30.1016 36.667 36.668 30.1005 36.668 22.0003C36.668 13.9001 30.1016 7.33366 22.0013 7.33366C13.9011 7.33366 7.33464 13.9001 7.33464 22.0003C7.33464 30.1005 13.9011 36.667 22.0013 36.667ZM22.0013 40.3337C11.8761 40.3337 3.66797 32.1255 3.66797 22.0003C3.66797 11.8751 11.8761 3.66699 22.0013 3.66699C32.1265 3.66699 40.3347 11.8751 40.3347 22.0003C40.3347 32.1255 32.1265 40.3337 22.0013 40.3337ZM16.2999 24.1468L11.7202 22.7173C10.7303 22.4137 10.7244 21.7327 11.9418 21.2433L29.7857 14.3508C30.8206 13.9271 31.4091 14.4624 31.0736 15.7971L28.0343 30.1361C27.8227 31.1562 27.2075 31.3991 26.3553 30.9283L21.6787 27.4679L19.499 29.5714C19.275 29.7876 19.0928 29.9733 18.7496 30.0199C18.4062 30.0663 18.1232 29.9647 17.9174 29.3954L16.3231 24.1321L16.2999 24.1468Z" fill="white"/>
</svg>
