<svg width="44" height="44" viewBox="0 0 44 44" fill="none" xmlns="http://www.w3.org/2000/svg">
<path d="M35.9455 12.8235C35.8058 12.2774 35.4107 11.8654 34.9582 11.7383C34.1543 11.5141 30.2513 10.9997 22.0013 10.9997C13.7513 10.9997 9.84913 11.5143 9.04197 11.7389C8.59373 11.8636 8.19872 12.2755 8.05719 12.8235C7.85772 13.6016 7.33464 16.8589 7.33464 21.9997C7.33464 27.1403 7.85772 30.3978 8.05774 31.1781C8.19682 31.722 8.5919 32.134 9.04244 32.2605C9.84913 32.485 13.7513 32.9997 22.0013 32.9997C30.2513 32.9997 34.1543 32.4852 34.9606 32.2605C35.4089 32.1358 35.804 31.7238 35.9455 31.1759C36.145 30.3978 36.668 27.133 36.668 21.9997C36.668 16.8663 36.145 13.6016 35.9455 12.8235ZM39.4972 11.913C40.3347 15.1797 40.3347 21.9997 40.3347 21.9997C40.3347 21.9997 40.3347 28.8197 39.4972 32.0863C39.0306 33.893 37.669 35.313 35.9431 35.7929C32.8109 36.6663 22.0013 36.6663 22.0013 36.6663C22.0013 36.6663 11.1982 36.6663 8.05952 35.7929C6.32718 35.3064 4.96562 33.8863 4.50536 32.0863C3.66797 28.8197 3.66797 21.9997 3.66797 21.9997C3.66797 21.9997 3.66797 15.1797 4.50536 11.913C4.972 10.1063 6.33358 8.68634 8.05952 8.20633C11.1982 7.33301 22.0013 7.33301 22.0013 7.33301C22.0013 7.33301 32.8109 7.33301 35.9431 8.20633C37.6754 8.69301 39.037 10.113 39.4972 11.913ZM18.3347 28.4163V15.583L29.3347 21.9997L18.3347 28.4163Z" fill="white"/>
</svg>
